# xmcd CD database file
#
# Track frame offsets:
#	150
#	16312
#	33497
#	44600
#	57125
#	70922
#	84810
#	97645
#	111360
#	129815
#	141985
#	158815
#	173590
#	184375
#	199530
#	214087
#	229212
#	240095
#	256000
#	266855
#	286735
#	302660
#	313740
#
# Disc length: 4347 seconds
#
# Revision: 0
# Processed by: cddbd v1.5.2PL0 Copyright (c) Steve Scherf et al.
# Submitted via: CDex 1.70beta2
#
DISCID=3110f917
DTITLE=ChartBreakers - ChartBreakers CGC-531
DYEAR=1900
DGENRE=Country
TTITLE0=Willie Nelson - Always On My Mind
TTITLE1=Conway Twitty - Crazy In Love
TTITLE2=Ronnie Milsap - Daydreams About Night Things
TTITLE3=Charlie Rich - A Very Special Love Song
TTITLE4=Merle Haggard - Big City
TTITLE5=Loretta Lynn - Coal Miner's Daughter
TTITLE6=Anne Murray - A Love Song
TTITLE7=John Anderson - Black Sheep
TTITLE8=Johnny Lee - Cherokee Fiddle
TTITLE9=Oak Ridge Boys - American Made
TTITLE10=Ronnie Milsap - Any Day Now
TTITLE11=Eddie Rabbitt - Drivin' My Life Away
TTITLE12=Buck Owens - Act Naturally
TTITLE13=Dolly Parton - But You Know I Love You
TTITLE14=Johnny Duncan and Janie Fricke - Come A Little Closer
TTITLE15=Ronnie Milsap - A Woman In Love
TTITLE16=Willie Nelson - Blue Eyes Crying In The Rain
TTITLE17=Oak Ridge Boys - Come On In (You Did The Best You Could Do)
TTITLE18=Ricky Van Shelton - From A Jack To A King
TTITLE19=Willie Nelson - Georgia On My Mind
TTITLE20=Ronnie Milsap - He Got You
TTITLE21=Kenny Rogers and Dottie West - Anyone Who Isn't Me Tonight
TTITLE22=Patsy Cline - Crazy
EXTD=YEAR: 1900
EXTT0=
EXTT1=
EXTT2=
EXTT3=
EXTT4=
EXTT5=
EXTT6=
EXTT7=
EXTT8=
EXTT9=
EXTT10=
EXTT11=
EXTT12=
EXTT13=
EXTT14=
EXTT15=
EXTT16=
EXTT17=
EXTT18=
EXTT19=
EXTT20=
EXTT21=
EXTT22=
PLAYORDER=
